<svg xmlns="http://www.w3.org/2000/svg" xmlns:xlink="http://www.w3.org/1999/xlink" viewBox="0 0 523 282"><defs><style>.cls-1{fill:none;}.cls-2{isolation:isolate;}.cls-3{clip-path:url(#clip-path);}.cls-4{fill:#3c2525;}.cls-5{fill:#ed6b00;}.cls-6{fill:#fff;}</style><clipPath id="clip-path"><rect class="cls-1" width="523" height="282"/></clipPath></defs><title>Ativo 1ico</title><g id="Camada_2" data-name="Camada 2"><g id="Camada_1-2" data-name="Camada 1"><g class="cls-2"><g class="cls-3"><rect class="cls-4" width="523" height="282"/><path class="cls-5" d="M83,181.68a9.13,9.13,0,0,1-9.16,9.18H62.89V172.53H73.84A9.24,9.24,0,0,1,83,181.68m-5.23-24.15a7.19,7.19,0,0,1-7.21,7.14H62.89V150.23h7.66a7.27,7.27,0,0,1,7.21,7.3m13,24.16A16.92,16.92,0,0,0,82.11,167a14.75,14.75,0,0,0,3.45-9.44,15.06,15.06,0,0,0-15-15.09H58.95a3.91,3.91,0,0,0-3.86,3.84v48.51a3.86,3.86,0,0,0,3.86,3.85H73.84a17,17,0,0,0,16.93-16.95M117.87,168a6.45,6.45,0,0,1-6.23,6.44h-8V161.56h7.76a6.45,6.45,0,0,1,6.43,6.47m9.23,25.55a3.74,3.74,0,0,0-2.23-2.2,15.55,15.55,0,0,1-.3-3.58,12,12,0,0,0-4.2-9.28,13.83,13.83,0,0,0-8.92-24.33H100.12l-.43,0a3.68,3.68,0,0,0-3.36,3.65v37.66a3.68,3.68,0,0,0,7.37,0V181.78l7.09,0,.41.12a10.71,10.71,0,0,1,3.68,1.62,5.05,5.05,0,0,1,2.39,4.31c0,3.55.42,5.92,1.33,7.63a5.52,5.52,0,0,0,4.73,3.11,5,5,0,0,0,.91-.08l.63-.12a3.89,3.89,0,0,0,2.25-4.76m26.27-12.24h-9.81l4.92-13ZM166,196.94a3.51,3.51,0,0,0,0-2.74l-14-37.43a3.69,3.69,0,0,0-3.57-2.42,3.9,3.9,0,0,0-3.51,2.36l-14,37.44A3.75,3.75,0,0,0,133,199l.6.17h.19l.23,0a1.33,1.33,0,0,0,.29,0,3.69,3.69,0,0,0,3.45-2.4l3-8.05h15.3l3,8.07a3.78,3.78,0,0,0,3.44,2.38,1.59,1.59,0,0,0,.54-.08l.39,0,.47-.16a3.68,3.68,0,0,0,2-2m9.88-30.54a4.79,4.79,0,0,1,2.23-3.69,12.16,12.16,0,0,1,6.95-2c3.86,0,7,2,9.8,3.87a3.36,3.36,0,0,0,1.94.6,3.49,3.49,0,0,0,3-1.58,3.55,3.55,0,0,0-1-4.9c-3.26-2.14-7.71-5.08-13.73-5.08a18.72,18.72,0,0,0-11.1,3.41,11.56,11.56,0,0,0-5.18,9.4,10.6,10.6,0,0,0,5.19,9c2.53,1.69,5.94,2.92,10.62,3.75a24.85,24.85,0,0,1,8.38,2.92c1.64,1.12,2.32,2.18,2.32,3.67a5.44,5.44,0,0,1-2.53,4.2A13.51,13.51,0,0,1,185,192.1c-5.48,0-10.32-3.56-11.64-4.65a3.56,3.56,0,0,0-5.09.5,3.63,3.63,0,0,0,.54,4.95c3,2.33,9,6.26,16.34,6.34h0a20.09,20.09,0,0,0,11.74-3.61,12.42,12.42,0,0,0,5.48-9.93,11.29,11.29,0,0,0-5.45-9.5c-2.69-1.84-6.25-3.14-11.34-4.07a21.21,21.21,0,0,1-7.73-2.7c-1.41-1-2-1.82-2-3M216,195.52V157.86a3.69,3.69,0,0,0-7.38,0v37.66a3.66,3.66,0,0,0,3.64,3.67,3.71,3.71,0,0,0,3.74-3.67m38-.51a3.66,3.66,0,0,0-3.69-3.72H233.18V157.86a3.69,3.69,0,0,0-7.38,0V195a3.68,3.68,0,0,0,3.78,3.67H250.3A3.68,3.68,0,0,0,254,195"/><path class="cls-6" d="M299.43,162.26a2.27,2.27,0,0,0,.61-1.69,2.68,2.68,0,0,0-1-2,23.82,23.82,0,0,0-14.48-5c-13.15.1-23.45,10.18-23.45,23,0,12.52,10.52,22.72,23.45,22.72A23.6,23.6,0,0,0,299,194.47a2.58,2.58,0,0,0,1-1.93,2.33,2.33,0,0,0-.63-1.77,2.52,2.52,0,0,0-2.06-1.06,2.72,2.72,0,0,0-1.61.55,17.46,17.46,0,0,1-11.19,3.92c-10.09,0-18.3-7.89-18.3-17.57,0-10,8-17.82,18.3-17.82a18.5,18.5,0,0,1,11.27,3.87,2.49,2.49,0,0,0,1.64.6,2.43,2.43,0,0,0,2-1m31.87,20.84H317l7.17-18.94Zm10.2,14.71a2.63,2.63,0,0,0,0-2l-14.9-39.7a2.51,2.51,0,0,0-2.5-1.71,2.68,2.68,0,0,0-2.48,1.65l-14.88,39.71a2.53,2.53,0,0,0,0,2,2.62,2.62,0,0,0,1.42,1.41l.36.12h.21l.27,0h.1a2.59,2.59,0,0,0,2.46-1.68l3.53-9.41h18.1l3.55,9.45a2.68,2.68,0,0,0,2.44,1.65,1.74,1.74,0,0,0,.51-.07h.21l.18-.06a2.55,2.55,0,0,0,1.4-1.4M383,162.27a2.34,2.34,0,0,0,.6-1.77,2.56,2.56,0,0,0-1-1.9,23.72,23.72,0,0,0-14.55-5c-13.13.1-23.42,10.18-23.42,23,0,12.52,10.51,22.72,23.43,22.72a23.5,23.5,0,0,0,14.48-4.85,2.49,2.49,0,0,0,1.05-1.9,2.4,2.4,0,0,0-.66-1.82,2.45,2.45,0,0,0-2-1.06,2.74,2.74,0,0,0-1.61.55,17.52,17.52,0,0,1-11.23,3.92c-10,0-18.24-7.89-18.24-17.57,0-10,8-17.82,18.24-17.82a18.51,18.51,0,0,1,11.34,3.87,2.49,2.49,0,0,0,1.63.6,2.45,2.45,0,0,0,2-1m31.83,20.83H400.61l7.14-18.93ZM425,197.82a2.6,2.6,0,0,0,0-2l-14.89-39.7a2.52,2.52,0,0,0-2.49-1.71,2.71,2.71,0,0,0-2.5,1.65l-14.9,39.73a2.59,2.59,0,0,0,0,2,2.68,2.68,0,0,0,1.47,1.42l.28.08h.19a2.15,2.15,0,0,0,.41.05,2.6,2.6,0,0,0,2.44-1.68l3.56-9.41h18.07l3.53,9.46a2.71,2.71,0,0,0,2.45,1.63,2.51,2.51,0,0,0,.55-.07h.19l.21-.09a2.47,2.47,0,0,0,1.36-1.37M468,180.88V156.81a2.58,2.58,0,1,0-5.15,0v24.07a13.27,13.27,0,1,1-26.54,0V156.81a2.59,2.59,0,0,0-5.19,0v24.07a18.44,18.44,0,1,0,36.89,0"/><path class="cls-6" d="M202.5,95.95a16.44,16.44,0,0,1,10.2,3.54,1.92,1.92,0,0,0,1.18.38,2,2,0,0,0,1.6-.79,1.78,1.78,0,0,0,.45-1.29,2.18,2.18,0,0,0-.79-1.55A20.89,20.89,0,0,0,202.5,92c-11.43,0-20.38,8.79-20.38,20,0,10.91,9.14,19.78,20.38,19.78a20.74,20.74,0,0,0,12.62-4.24,2,2,0,0,0,.81-1.49,1.87,1.87,0,0,0-.52-1.41,1.82,1.82,0,0,0-1.52-.81,2.61,2.61,0,0,0-1.35.43,15.38,15.38,0,0,1-10,3.52c-9,0-16.35-7.07-16.35-15.77a16.18,16.18,0,0,1,16.35-16"/><path class="cls-6" d="M156.57,92c-10.56,0-18.88,8.72-18.93,19.87s8.37,19.87,18.93,19.87,18.76-8.74,18.81-19.89S167.07,92,156.57,92m0,35.72c-8.24,0-14.93-7.12-14.93-15.88S148.21,96,156.57,96c8.1,0,14.73,7.09,14.77,15.8s-6.68,15.87-14.77,15.87"/><path class="cls-6" d="M125,92.48a2.06,2.06,0,0,0-2,2v15.65H104.94V94.47a2,2,0,0,0-4,0V129.7a2,2,0,0,0,4,0V114.07h18.12V129.7a2,2,0,0,0,4,0V94.47a2,2,0,0,0-2-2"/><path class="cls-6" d="M75,95.95A16.4,16.4,0,0,1,85.16,99.5a2,2,0,0,0,1.18.37A2,2,0,0,0,88,99.09a1.76,1.76,0,0,0,.43-1.28,2.14,2.14,0,0,0-.77-1.55A20.87,20.87,0,0,0,75,92c-11.44,0-20.4,8.79-20.4,20,0,10.91,9.15,19.78,20.39,19.78a20.67,20.67,0,0,0,12.6-4.24,1.92,1.92,0,0,0,.8-1.49,2.26,2.26,0,0,0-2-2.22,2.57,2.57,0,0,0-1.35.43,15.38,15.38,0,0,1-10,3.52c-9,0-16.35-7.07-16.35-15.77A16.18,16.18,0,0,1,75,95.95"/><path class="cls-6" d="M421.33,96.48a2,2,0,0,0,0-4H401.86a2,2,0,0,0-2,2V129.7a2,2,0,0,0,1.79,2h19.68a2,2,0,0,0,0-4H403.88V114.13h15.18a2.06,2.06,0,0,0,2-2,2,2,0,0,0-2-2H403.88V96.48Z"/><path class="cls-6" d="M381.8,92.48H356.36a2,2,0,0,0-2,2,2,2,0,0,0,2,2h10.72V129.7a2,2,0,0,0,4,0V96.48H381.8a2,2,0,0,0,2-2,2,2,0,0,0-2-2"/><path class="cls-6" d="M328.5,93.94a2,2,0,0,0-1.93-1.29,2.12,2.12,0,0,0-2,1.25L311.47,129a2,2,0,0,0,1.12,2.61l.26,0H313a1.63,1.63,0,0,0,.35.07,2,2,0,0,0,1.87-1.31l3.18-8.51h16.33l3.18,8.52a2.16,2.16,0,0,0,1.86,1.3h0l.39-.06h.07l.27-.06a2,2,0,0,0,1.07-1.07,1.93,1.93,0,0,0,0-1.54Zm-8.62,24,6.7-17.71,6.68,17.71Z"/><path class="cls-6" d="M293.76,127.68H276.31V94.47a2,2,0,0,0-4,0v35.23a2,2,0,0,0,2.08,2h19.38a2,2,0,1,0,0-4"/><path class="cls-6" d="M241.59,92c-10.55,0-18.87,8.72-18.93,19.87s8.38,19.87,18.93,19.87,18.77-8.74,18.82-19.89S252.1,92,241.59,92m0,35.72c-8.24,0-14.92-7.12-14.92-15.88S233.23,96,241.59,96c8.11,0,14.73,7.09,14.78,15.8s-6.68,15.87-14.78,15.87"/><path class="cls-6" d="M464.5,113.21a26.8,26.8,0,0,0-9.83-3.54l-.26,0a21.26,21.26,0,0,1-7.77-2.74c-1.7-1.19-2.45-2.4-2.5-4a5.88,5.88,0,0,1,2.69-4.64,12.88,12.88,0,0,1,7.32-2.13c4.14,0,7.38,2.14,10,3.85a1.76,1.76,0,0,0,1,.31,1.9,1.9,0,0,0,1.59-.79,1.93,1.93,0,0,0-.54-2.64c-2.88-1.9-6.83-4.49-12.05-4.49a16.26,16.26,0,0,0-9.54,2.9,9.47,9.47,0,0,0-4.21,7.63,8.41,8.41,0,0,0,4.19,7.13,23.63,23.63,0,0,0,9.05,3.33H454a25.08,25.08,0,0,1,8.4,3,5.4,5.4,0,0,1,2.79,4.65,6.35,6.35,0,0,1-3,5.06,14,14,0,0,1-8.1,2.38c-5.34,0-10.07-3.32-11.83-4.73a1.82,1.82,0,0,0-1.2-.43,1.9,1.9,0,0,0-1.47.7,1.94,1.94,0,0,0,.29,2.63c2.62,2.07,8,5.55,14.34,5.62h0A17.45,17.45,0,0,0,464.42,129a10.16,10.16,0,0,0,4.54-8.11,9.28,9.28,0,0,0-4.46-7.72"/></g></g></g></g></svg>