<svg xmlns="http://www.w3.org/2000/svg" viewBox="0 0 273.67 273.67">
  <defs>
    <style>
      .cls-5{fill:#fff}
    </style>
    <clipPath id="clip-path">
      <path fill="none" d="M0 0h273.67v273.67H0z"/>
    </clipPath>
  </defs>
  <g id="Camada_2" data-name="Camada 2">
    <g id="Camada_1-2" data-name="Camada 1">
      <path fill="#3c2525" d="M0 0h273.67v273.67H0z"/>
      <g clip-path="url(#clip-path)">
        <path d="M53.67 155.8a4.26 4.26 0 0 1-4.27 4.28h-5.1v-8.54h5.1a4.31 4.31 0 0 1 4.27 4.26m-2.44-11.26a3.35 3.35 0 0 1-3.36 3.33H44.3v-6.73h3.57a3.39 3.39 0 0 1 3.36 3.4m6.05 11.26a7.88 7.88 0 0 0-4-6.85 6.89 6.89 0 0 0 1.61-4.41 7 7 0 0 0-7-7h-5.4a1.82 1.82 0 0 0-1.81 1.79v22.61a1.8 1.8 0 0 0 1.81 1.79h6.91a7.9 7.9 0 0 0 7.88-7.9m12.64-6.36a3 3 0 0 1-2.9 3h-3.71v-6h3.62a3 3 0 0 1 3 3m4.31 11.91a1.77 1.77 0 0 0-1-1 7 7 0 0 1-.14-1.67 5.58 5.58 0 0 0-2-4.32A6.45 6.45 0 0 0 66.92 143h-5.48a1.71 1.71 0 0 0-1.57 1.7v17.56a1.72 1.72 0 0 0 3.43 0v-6.41h3.31l.19.05a5 5 0 0 1 1.71.75 2.36 2.36 0 0 1 1.11 2 7.59 7.59 0 0 0 .62 3.56 2.58 2.58 0 0 0 2.21 1.45 2.45 2.45 0 0 0 .43 0l.29-.06a1.82 1.82 0 0 0 1.05-2.22m12.23-5.7h-4.56l2.29-6.06zm5.86 7.27a1.63 1.63 0 0 0 0-1.28l-6.53-17.44a1.73 1.73 0 0 0-1.66-1.13 1.81 1.81 0 0 0-1.63 1.1L76 161.61a1.74 1.74 0 0 0 1 2.25l.28.08h.33a1.71 1.71 0 0 0 1.61-1.12l1.41-3.75h7.13l1.42 3.76a1.75 1.75 0 0 0 1.6 1.11.69.69 0 0 0 .25 0h.18l.22-.07a1.72 1.72 0 0 0 .91-.93m4.6-14.24A2.23 2.23 0 0 1 98 147a5.67 5.67 0 0 1 3.24-.94 8.42 8.42 0 0 1 4.57 1.8 1.57 1.57 0 0 0 .91.28 1.64 1.64 0 0 0 1.4-.74 1.66 1.66 0 0 0-.48-2.28 11.42 11.42 0 0 0-6.4-2.37 8.73 8.73 0 0 0-5.24 1.54 5.39 5.39 0 0 0-2.42 4.38 5 5 0 0 0 2.42 4.18 12.91 12.91 0 0 0 5 1.75 11.45 11.45 0 0 1 3.9 1.36 2 2 0 0 1 1.08 1.71 2.54 2.54 0 0 1-1.18 2 6.3 6.3 0 0 1-3.6 1 9.37 9.37 0 0 1-5.42-2.17 1.65 1.65 0 1 0-2.14 2.5 12.93 12.93 0 0 0 7.61 3 9.34 9.34 0 0 0 5.46-1.69 5.78 5.78 0 0 0 2.56-4.63 5.26 5.26 0 0 0-2.54-4.43 13.46 13.46 0 0 0-5.28-1.9 9.8 9.8 0 0 1-3.6-1.26 1.71 1.71 0 0 1-.94-1.41m18.7 13.58v-17.57a1.72 1.72 0 0 0-3.43 0v17.56a1.7 1.7 0 0 0 1.7 1.71 1.72 1.72 0 0 0 1.74-1.71m17.71-.24a1.71 1.71 0 0 0-1.72-1.74h-8v-15.58a1.72 1.72 0 0 0-3.44 0V162a1.72 1.72 0 0 0 1.76 1.71h9.65a1.72 1.72 0 0 0 1.72-1.71" fill="#ed6b00"/>
        <path class="cls-5" d="M154.5 146.75a1.06 1.06 0 0 0 .28-.79 1.23 1.23 0 0 0-.47-.92 11.09 11.09 0 0 0-6.75-2.32 10.66 10.66 0 1 0 0 21.31 11 11 0 0 0 6.74-2.27 1.21 1.21 0 0 0 .48-.91 1.1 1.1 0 0 0-.29-.82 1.19 1.19 0 0 0-1-.49 1.25 1.25 0 0 0-.75.26 8.14 8.14 0 0 1-5.22 1.83 8.25 8.25 0 1 1 0-16.49 8.6 8.6 0 0 1 5.25 1.81 1.18 1.18 0 0 0 .77.28 1.13 1.13 0 0 0 .92-.47m14.85 9.71h-6.61l3.35-8.83zm4.75 6.86a1.21 1.21 0 0 0 0-.92l-6.94-18.5a1.17 1.17 0 0 0-1.17-.8 1.24 1.24 0 0 0-1.15.77l-6.93 18.51a1.15 1.15 0 0 0 0 .92 1.23 1.23 0 0 0 .66.66l.17.06h.3a1.2 1.2 0 0 0 1.14-.78l1.65-4.39h8.43l1.65 4.4a1.25 1.25 0 0 0 1.13.74.74.74 0 0 0 .24 0h.18a1.17 1.17 0 0 0 .65-.65m19.34-16.57a1.09 1.09 0 0 0 .28-.82 1.18 1.18 0 0 0-.47-.88 11 11 0 0 0-6.78-2.32 10.66 10.66 0 1 0 0 21.31 11 11 0 0 0 6.75-2.26 1.18 1.18 0 0 0 .49-.88 1.13 1.13 0 0 0-.31-.85 1.16 1.16 0 0 0-.95-.49 1.29 1.29 0 0 0-.75.26 8.17 8.17 0 0 1-5.24 1.83 8.25 8.25 0 1 1 0-16.49 8.6 8.6 0 0 1 5.29 1.81 1.16 1.16 0 0 0 .76.28 1.14 1.14 0 0 0 .92-.47m14.83 9.71h-6.63l3.33-8.82zm4.76 6.86a1.23 1.23 0 0 0 0-.92l-6.93-18.5a1.17 1.17 0 0 0-1.16-.8 1.25 1.25 0 0 0-1.16.77l-6.95 18.52a1.22 1.22 0 0 0 0 .92 1.23 1.23 0 0 0 .69.66H197.89a1.21 1.21 0 0 0 1.14-.78l1.66-4.39h8.42l1.64 4.41a1.27 1.27 0 0 0 1.25.73 1 1 0 0 0 .25 0h.19a1.17 1.17 0 0 0 .64-.64m20-7.9v-11.25a1.2 1.2 0 1 0-2.4 0v11.22a6.18 6.18 0 1 1-12.37 0v-11.22a1.21 1.21 0 0 0-2.42 0v11.22a8.59 8.59 0 1 0 17.19 0M109.35 115.84a7.7 7.7 0 0 1 4.75 1.65.88.88 0 0 0 .55.18.92.92 0 0 0 .75-.36.85.85 0 0 0 .21-.6 1 1 0 0 0-.36-.72 9.76 9.76 0 0 0-5.89-2 9.26 9.26 0 1 0 0 18.52 9.66 9.66 0 0 0 5.88-2 .92.92 0 0 0 .38-.7.88.88 0 0 0-.25-.66.84.84 0 0 0-.7-.38 1.24 1.24 0 0 0-.63.2 7.16 7.16 0 0 1-4.67 1.64 7.4 7.4 0 1 1 0-14.79M87.94 114a9.27 9.27 0 0 0 0 18.52c4.9 0 8.75-4.07 8.77-9.27S92.84 114 87.94 114m0 16.65a7.19 7.19 0 0 1-7-7.4 7.09 7.09 0 0 1 7-7.36 7.4 7.4 0 0 1 0 14.76M73.26 114.23a1 1 0 0 0-.92.93v7.29h-8.45v-7.29a.93.93 0 0 0-1.87 0v16.42a.93.93 0 0 0 1.87 0v-7.29h8.44v7.29a.93.93 0 0 0 .92.93.94.94 0 0 0 .94-.93v-16.43a.93.93 0 0 0-.94-.93M49.94 115.84a7.67 7.67 0 0 1 4.74 1.65.92.92 0 0 0 .54.17.94.94 0 0 0 .75-.36.8.8 0 0 0 .2-.6 1 1 0 0 0-.36-.73 9.72 9.72 0 0 0-5.88-2 9.26 9.26 0 1 0 0 18.52 9.64 9.64 0 0 0 5.87-2 .88.88 0 0 0 .37-.69 1.06 1.06 0 0 0-.94-1 1.21 1.21 0 0 0-.63.2 7.17 7.17 0 0 1-4.67 1.64 7.4 7.4 0 1 1 0-14.79M211.3 116.09a.92.92 0 0 0 .91-.94.91.91 0 0 0-.91-.93h-9.07a1 1 0 0 0-.92.93v16.42a.92.92 0 0 0 .83.93h9.17a.93.93 0 0 0 0-1.87h-8.14v-6.32h7.08a1 1 0 0 0 .92-.92.93.93 0 0 0-.92-.94h-7.08v-6.36zM192.88 114.23H181a1 1 0 0 0-.92.93.93.93 0 0 0 .92.94h5v15.48a.93.93 0 0 0 1.87 0v-15.49h5a.93.93 0 0 0 .91-.94 1 1 0 0 0-.91-.93M168 114.9a.93.93 0 0 0-.9-.6 1 1 0 0 0-.91.58l-6.12 16.34a1 1 0 0 0 0 .72 1 1 0 0 0 .51.5h.37a1 1 0 0 0 .87-.61l1.48-4h7.7l1.48 4a1 1 0 0 0 .87.6h.3a.95.95 0 0 0 .51-1.22zm-4 11.17l3.12-8.26 3.12 8.26zM151.86 130.63h-8.13v-15.48a.93.93 0 0 0-1.86 0v16.42a.93.93 0 0 0 1 .93h9a.93.93 0 1 0 0-1.87M127.56 114a9.27 9.27 0 0 0 0 18.52c4.89 0 8.74-4.07 8.77-9.27s-3.87-9.25-8.77-9.25m0 16.65a7.19 7.19 0 0 1-7-7.4 7.09 7.09 0 0 1 7-7.36 7.4 7.4 0 0 1 0 14.76M231.41 123.88a12.5 12.5 0 0 0-4.58-1.65h-.12a9.94 9.94 0 0 1-3.62-1.28 2.27 2.27 0 0 1-1.17-1.88 2.74 2.74 0 0 1 1.26-2.17 6 6 0 0 1 3.41-1 8.39 8.39 0 0 1 4.65 1.79.84.84 0 0 0 .48.14.87.87 0 0 0 .74-.37.89.89 0 0 0-.25-1.23 10.07 10.07 0 0 0-5.61-2.09 7.56 7.56 0 0 0-4.45 1.35 4.41 4.41 0 0 0-2 3.56 3.92 3.92 0 0 0 2 3.32 11 11 0 0 0 4.21 1.55h.17a11.73 11.73 0 0 1 3.91 1.38 2.5 2.5 0 0 1 1.3 2.16 3 3 0 0 1-1.38 2.36 6.47 6.47 0 0 1-3.77 1.11 9.52 9.52 0 0 1-5.51-2.2.88.88 0 0 0-1.24.12.9.9 0 0 0 .13 1.23 11.47 11.47 0 0 0 6.68 2.62 8.11 8.11 0 0 0 4.73-1.46 4.72 4.72 0 0 0 2.11-3.78 4.32 4.32 0 0 0-2.08-3.6"/>
      </g>
    </g>
  </g>
</svg>